<mxfile host="app.diagrams.net" agent="Mozilla/5.0 (Windows NT 10.0; Win64; x64) AppleWebKit/537.36 (KHTML, like Gecko) Chrome/138.0.0.0 Safari/537.36" version="28.0.7">
  <diagram name="第 1 页" id="fl4QZlt2tJ5Uy4APvdiP">
    <mxGraphModel dx="1426" dy="846" grid="0" gridSize="10" guides="1" tooltips="1" connect="1" arrows="1" fold="1" page="0" pageScale="1" pageWidth="827" pageHeight="1169" math="0" shadow="0">
      <root>
        <mxCell id="0" />
        <mxCell id="1" parent="0" />
        <mxCell id="c_Fl5ofFOobAnzRydgGP-23" style="edgeStyle=orthogonalEdgeStyle;rounded=0;orthogonalLoop=1;jettySize=auto;html=1;exitX=0.5;exitY=1;exitDx=0;exitDy=0;entryX=0.5;entryY=0;entryDx=0;entryDy=0;" edge="1" parent="1" source="c_Fl5ofFOobAnzRydgGP-2" target="c_Fl5ofFOobAnzRydgGP-11">
          <mxGeometry relative="1" as="geometry" />
        </mxCell>
        <mxCell id="c_Fl5ofFOobAnzRydgGP-2" value="智农云品种&lt;div&gt;【agroculture-pub】&lt;/div&gt;" style="rounded=1;whiteSpace=wrap;html=1;strokeWidth=1;fontSize=15;fillColor=#d5e8d4;strokeColor=#82b366;" vertex="1" parent="1">
          <mxGeometry x="170" y="500" width="160" height="60" as="geometry" />
        </mxCell>
        <mxCell id="c_Fl5ofFOobAnzRydgGP-3" value="联服宝品种&lt;div&gt;【varieties】&lt;/div&gt;" style="rounded=1;whiteSpace=wrap;html=1;strokeWidth=1;fontSize=15;fillColor=#d5e8d4;strokeColor=#82b366;" vertex="1" parent="1">
          <mxGeometry x="574" y="500" width="160" height="60" as="geometry" />
        </mxCell>
        <mxCell id="c_Fl5ofFOobAnzRydgGP-27" style="edgeStyle=orthogonalEdgeStyle;rounded=0;orthogonalLoop=1;jettySize=auto;html=1;exitX=0.5;exitY=0;exitDx=0;exitDy=0;exitPerimeter=0;entryX=0;entryY=0.5;entryDx=0;entryDy=0;" edge="1" parent="1" source="c_Fl5ofFOobAnzRydgGP-4" target="c_Fl5ofFOobAnzRydgGP-25">
          <mxGeometry relative="1" as="geometry" />
        </mxCell>
        <mxCell id="c_Fl5ofFOobAnzRydgGP-4" value="Canal" style="shape=cylinder3;whiteSpace=wrap;html=1;boundedLbl=1;backgroundOutline=1;size=11;direction=south;fontSize=16;fontStyle=1" vertex="1" parent="1">
          <mxGeometry x="406" y="686" width="116" height="39.5" as="geometry" />
        </mxCell>
        <mxCell id="c_Fl5ofFOobAnzRydgGP-9" style="edgeStyle=orthogonalEdgeStyle;rounded=0;orthogonalLoop=1;jettySize=auto;html=1;exitX=0.5;exitY=1;exitDx=0;exitDy=0;entryX=0.5;entryY=0;entryDx=0;entryDy=0;" edge="1" parent="1" source="c_Fl5ofFOobAnzRydgGP-8" target="c_Fl5ofFOobAnzRydgGP-2">
          <mxGeometry relative="1" as="geometry" />
        </mxCell>
        <mxCell id="c_Fl5ofFOobAnzRydgGP-8" value="农艺平台" style="rounded=1;whiteSpace=wrap;html=1;strokeWidth=1;fontSize=15;fillColor=#e1d5e7;strokeColor=#9673a6;" vertex="1" parent="1">
          <mxGeometry x="170" y="325" width="160" height="60" as="geometry" />
        </mxCell>
        <mxCell id="c_Fl5ofFOobAnzRydgGP-10" value="binlog" style="text;html=1;align=center;verticalAlign=middle;whiteSpace=wrap;rounded=0;" vertex="1" parent="1">
          <mxGeometry x="338" y="675.75" width="60" height="30" as="geometry" />
        </mxCell>
        <mxCell id="c_Fl5ofFOobAnzRydgGP-11" value="" style="rounded=1;whiteSpace=wrap;html=1;strokeWidth=1;fontSize=15;fillColor=#dae8fc;strokeColor=#6c8ebf;" vertex="1" parent="1">
          <mxGeometry x="170" y="675.75" width="160" height="60" as="geometry" />
        </mxCell>
        <mxCell id="c_Fl5ofFOobAnzRydgGP-21" value="" style="shape=image;verticalLabelPosition=bottom;labelBackgroundColor=default;verticalAlign=top;aspect=fixed;imageAspect=0;image=data:image/png,iVBORw0KGgoAAAANSUhEUgAABQAAAAKWCAMAAAAhosQVAAAAJ1BMVEVHcEwAYYoAYYrljwAAYYoAYYoAYYrkjgCpgDPkjgDljgAAYYrkjgDlPBxsAAAAC3RSTlMAuYV6VSzinRXNQPxx6ccAACllSURBVHja7N3dbts4EAZQDkEOBPD933ez6KJbx2mThpJM2ef0ukauPswPKRYAgK/ovdVa25teAF5Gq5HjFxlVDAIvoNccH4oqBIFn1mP8QUbbCsAz2mJ8SgYCz6jleCMDgddTx9dFKwBPo44xRCDwiur4W1l1wsAzqOM7nIwBrq+PbwoRCFxcjiECgZdUxxgiEHhFfYwhAoGXFGOajTBwSX3sIGsBuJw6dpGORgNXs40PRH0TYRQIPLX2p4leb5Hj6/TBwKXEZwuNXlMfDDyl8U4r93rog4Hn08atKB9rMb5IEQhcRP04vmbKwCgAV1DHjSx/sNUcX5HaYOAK4u/61xYSEHgWOW708pkeBoHAc8hxo3xBDwkIPIO7APyKXh2KBq7vLgB3i8DwhRhgbXE3A/yirVqFANcW3x/d9dAGA1dW7w4x7xmB2fTBwLLquFX+TsvxqcyIqLW21nrXFgPL6ONWK5MR+NVAbKIQeLTpi7xbHd8U1WlB4JFi3O2BjysC70VVCQKPUset+t0fEYLA1fQxUQLe7IOFIHA1OW7Fox6Xy7AYAc5Vp0rA//Uc81IhCJxoG+9E+X4CykDgUup4p01slGUgcCV9vJPliAT0yjqwoNjvIwZ1fMYbw8BK+nivTzyzuZ/0NRng/BIwJ9I0hyoQuI6+55f8tjpEIHAddfZRo/trIdYhwDVsue/37Hvkj3/jc95XAh6rjfei7KK3GpH6YGBh8UkCTtp6b63VNxGRqQ8GFtLz1LfNe6uR+mBgDW3c6eVYvYU+GFhBPORh3xapDwYebcuJMeCMFq6GAA/Wx4cJuFQGKgKBY9Rxp5WT9JqWIcADxe8XIeuUgZYhwEljwNzKeXodX1G3AvBEY8AftpaKQOAx2qdDtzU6YcsQ4NnGgD+0UAQCjxDnjAHnP6gVJoHAzvrn56EXiUBFILC3vsjZux4mgcDZ6sSl4F21VAQCs+bHgOXOIhFoEgjsK9dogj96YWmV6hR4Vn3caeVBtnA7GDhTmzgLs7sediHAieoSZ2F+MwpcqD4FntCWS4XMVrXBwGn6uNPLA/WwCwF+cc2Xgr+rpTYYOEmsFjFbaIOBk+R4byuP1VIbDJyir9YEl7JVRSBwirpaE/ympwQEzhCr3An+VTgUDZxgyxUrrJYGgcDx+i6HAbfe27+23SaB2mDgeHVyD9Jbjdy/OGsSEDheTu1BWh70/dIttMHA0frcHqQf9v3SKgGBo9W5ozBxWDT1dDEOOHkTnBP/fd9oCoNA4Fh9LsHaIdF0/9vrXVsBnkAdt2Kd+yQ9vZcEnNoE99lOdSu7qVYhwJHaZA8bR87nmlUIcKScq+C2PLAELD0lILBuCdjzyBXtFpbBwGklYM5ukrPsqkpA4LQSsM3XkLtqjsMAh8nZUKnHPjHXUwICB6nTLWwcu53oIQGBc66DtNlfaGd+KTodiQYmxHRRFUe/sl4diQYmHDnD64e/sNkkIHBGD1wnS8ByhJ4SEFjwKOBthmaRgMBlxPw5ljj+ePIWEhBY7jrcm3bGHV0JCBw+BMypcCrHqRIQ2FvO98DtlKPJdfyWBAR26S3rRIj2UtSAwHW0HXrg9rMAlIDAhWx79JN5zs20JgGB5Xrg9l8GSUDgUuq4Fd98YKmVEzSPxQE76nv0wPWsCqz5Ohawo9jhxaGtl5N0CQjsp10rSCQgcOAeePFpWvNSErBUD3ymLgGBF+2BJSCwo/FOWV0fP12segVWc7UeuJTmwwjAi/bApTRXQoBVPox/uuaxTGAX9XI98M3ffL34BtbRr7hMrQ5EAy/aA5dSHYYBlngg/RHCYRjgRXvgUsJhGGBeXLEHLltaBQMv2gOXLS1CgFnbNXvg0tMiBJgVF62gmkUIMKtdswcupVmEAC/aA5dSLUKAl9wD/yssQoAX7YHLZhECTMrLpkdPY0D4h717221kBaIACghQS/z//x7ndpLM2Ol22xmpYK3nGSl5SGkXVdA8pER7F/pTdQwIPKQF3iMpjgGBJVcBXxTHgMCaY5CLbh8aWHIV8KJ1x4DAkquAF9UxILDoGMQxIPCYHjo8ZduAwHKvAr7bus/EAWuOQVJqmmDgvBw6AqZqFwZY7eNI/8t2YYCnVZBolaPbhQHOqsEjoCYYOK8Hj4DFLgxwVgkeAVPWBANn9eDRyS4McFqJHp2qJhg4aQtfODTBwLIRcOsmwcA5W/jCoQkGzirh71EUTTBwUo8+QN26STBwTgnfO9ZxVQ/3iwD/XA/fO2qCgZNq+N7RJBg4q0/bBCeAn7X4vWM2BwHOyeELx9YtAwKntPiFQxMMnJTjr5BogoFzth7+wxrNMiBwTo3/aSHLgMDTOsgcrQJaBgTOafE/L2kOApxU4ldAcxDgpB6+ArbxLvi37oB/rsWfIBQREDinxK+A7oMAJ/XwM9QqAgLntPjpKYuAwKrHgE0EBE6q4dNTNggGTmo9eHraREDgrNaD36QoroMAZ7UeexC8dTeCgVW/kSQCAueV2AUwiYDAaS14AazeBQROy7ELYOqWoYGzSvDmsdqEAVYtgCkbgwDPOQNM4VRjEOCcHD85dWMQ4Iw2Qd2oxiDAimuAr7oxCHDCFLmpGIMA96tTVI3NGAS4X56jb8zGIMDd+hypqXoXFbhXm6VmGIMA9yqzdI3GIMC98hwdcErNGAS4Uw9/D85tEGDdayDvitsgwF3qPC3j5lEs4C5lmg7Yo1jAYo9BexQLOK3PVC18GwS4Q5uqXzQGAe5QJ+qAU2rGIMBxZa6w1I1BgMP6XMdlPg8HHNZmGoFcbEMEBA6qczwE86nYhAEOynN1wCk1mzDAQX26oJRtwgCHtPmOykRA4Jgy4bBUBAQW7YBtwgDHbPN1wBfd15GAfXXKczIREDggT9gBuw8HHNLnnBNYhgZWXIJ5tdmEAfbUWQ/JPAsI7CmztoiWoYE9edqAJAICOyY9AvQyNLCrTdwgZsvQwGoXgUVAYO0ZyJcIONFX3wEzEBEQeIK5w1F2Hw5Y7h7Iu+o+HLDYUzAiILD4EFgEBNYdAr/o7sMBaz0G+Km6Dwes9RigCAisvgUjAgKrfRBJBASsAYqAwLprgK+6+3DAqgWweBULWHAP+tUmAgKrFkAREFhyD/rV5lUsYNUCeD0CdhEQ1rZIAfQwKvC3vkYBTMWrWMB6V4FFQOCGZW5HeBgVWLYANg+jAqsWQBEQeHoBbFGKprfxgScXwK2HiY1dBAS+2h4tgDlODSkGwcAzC2CN1EaKgMATC2AL9YiWCAg8rwBuPdSzKtsQAYFnDUFysFGqCAg8qwCWaCWkiYDAFw9sxdV4JSSLgMAzCmALeIOkDu8CAo8XwK1HvE/RRUDgf/1sJcghvyZXnQICDxfAEvMVhU0EBP6XzxWCGrWCFBEQ+JDHmVa29aifmGxDBAQeKoA5bgXJIiDwrpypAzVwBWnDu4DA+QK49cgVRAQErg8F7vs/E23CxCngwG+Vg3ZPExlzEyb1EbqAA0/T7q9iOfggtQYv4MAvvZFX7yiZUTdhREDg3d0xrowR/BRNBASuxaF8rGIGH6SKgMCpTeg6RvgIWIL38MCvFMB+8N8Hj1DBxzjA76ShdmwEEvwUrQT/+YFfmQjUY6UjeITagv/8wK8sApaDHXDwt+VFQODF+CbvRqeZI2CcU0zg3+/B1PFigk0YERD4u6ndDvzjCTZhth68ggPPUO4pYX1MHgHDVHDgF8bAZWdiMksETN02NHB8CvJZLGdYhq7RfwHg6VGoH+gbp1iGTj34JBv4t3dB+pg/AgYq4cDDyvEENMZMETCHP8cEHtUOR7g2xkwRsI0bcpwiDjxofHfv15By2AhYxi1ZCoRF5KMdYBlX1BY2Am593NRLnEIO/INNwHx9cS5uBKzjJ71YCoTptaO3Ofr1ux8t7iJJHm+cBsKy+rEEt92YeQSOgG28cxoIqzq4CFNv7Q3HPQVMdezqSiDMrI5v+n0FMHQETHkogbC28V29ZwicYkfA1scb8xBYVL5dv/aHwC9y3MsUdbwzD4E11fHd8QLYUwoeAf8PtuYhsKbtUIDr148Ao0fALY8XOmFYVT4yBvnp4YAW9mnoaxXQBRFYST0wxm0/vv2S425Df3TBDgNhUeO7fHRakD60sN8IftHyuHAYCGsq+xGwXp+BTBEBU6pdCYRVtf3yVX5+/K9F/7xQzeOD5WhYy/4YJF8dAk8TAS9a6VIgrKju7rHkndfjW9zH8T/VbBwCC9rdY+k7BTDlwNvQX9Tcx1H2AmEOZS8Cjitami0CvqqlOwqElWw7+a2NK1KaMAK+aqXrg2EdOxGw3dqC+dTm+sBkK3kc0ONNe4BPh26z1QOfwMyBL8Rd1WoWAmEJP++xlAMFsI3wqzDHeuEJf09Y3F8RsO0VwJL+kKNvQ5+9KNeFQAjuege7vwb4qY2J5iBf1SwEwty23Yse+9vS06zCXGmFnQTCzMoPFa6Pv21pmQj4XgPtBMK8+u0KuLMF86HMtQpz33FgnuLIE1ZVbx5ttb0h8Icc+mHAfVvpQiDMKd862mo3z/0XWIX5Q8tmITCjduvGfz38x16nnYN8asVCDEyojCtyLT++BTPvleCbWhYCYT55HJaua33qOciH2s1CYDatj4N6uqHOdiX4hmIWArOp46CSbimLNIWta4NhMmUc09JNef45yJvqXghMpp/sgD9tfYE5yKuWtcEwla2f7IA/tSXmIK+qNhim0vrJDvhTXaUJTmnLpsEwkzp25fSzskoTfFEtRcNM6tkA+KksEwG/nATO/RQErKI8/v5nXmIZ8F1xEAgTqXsj4H19pVLQuoNAmEd9+BMYW1+nCb4oDgJhHq0/+uJJ6ws1wSnV7iAQ5pEfveXQ+kJNcEpbdhAI82j9wT/ntlQTnFJ1MQ4mUvP4rrR0j7bMMuCblh0EwkS+fgst1y3dqa7WCxYHgTCVVstFbemMulYTnFLtDgKBd3WlSfCrbCMQeFeXy0G1OwgE3rTFmuCUWnYQCLxpqzXBKRUHgcCbtl4NaF0FBF61vlgTfFGMQoA/KmBfpgRs2SgEeLH1hS6EfKjdKAS42PKCFWArKiDwIi93DHjRulEIcFHWa4IvigoIXNQlC0DLKiCQUl3zGKw4BwRSan3JZZDaVUAgbXnBY8AvbfB665DAF3nJU7DXwr/Y+9jA3+qaPWA2CAFSan21bcBXxTEgkNKWFxyEvGbAxT6TB1xTVpwDtDHGUt+KB66rK84BikEI8KL19eYAm21AYPIKuLVWay0X+Q9jOAYEXrQ+VwRqtZaSex8/sQ8NzFUBWy25j2McAwKzVMCtljwO8qU44IvWI68Dto/cpwICS1XAWvq4m++lA+ErYP2MfiIg8B9757oeNwoE0RYX0SC9//OuLzuRZzxjixbgBup8+bdxovbEZwsoSRMZ0N+yHxIgAGAqA7JZt7Is/QwPAJjZgG7ZirIuDkVAAOamjzaMN4Xtt5hOtA8AqMqi/Sig9L7fahD9AADHc1IWvUbwC6IfAGDOjUBXMPlBfgCAJxitBnRFzLcuxnm9IRcA8Ld4o9OAFyPfYhzMBwD4FdZ4Fuw2Ee/i8yqFDgAA9QS4Lg7mAwAMgUG1GQAwK7yi3wIAmBVzTn4aNzABAOAa/Lv8sOkHABiUZXvFCvcBAMbGb0/R2twGAICCrHinGwBgVtz2CV5sDgCYD0RAAMC0GLzQAwAwLcv2nBX3fQAARsdvWAQDAGbFwIAAgGlZYEAAwKz47Tna3+cEAAD1yoCq3+cEAAClFsG4Jw4AMCk/GBB9QADA2Ph1w0YgAGBS3LZhGQwAmBSzvYHb4gAAU7JsP7AgBAIARubdgDgLAQBMCa/bhp1AAMCc/G9APa1o74xZlmV9Z1kW0/FbSvh9lvtR0DEHQBV+3TYd62DvzLI+vYQO31DszbLivVMAqIfX7WcW39gXz8XR0YakN8cwoxgdgEG5N2D7WrR3y3aGtQ9rsFm3M0CCAOjgEFDzdTCbZbun72YOm+2DkZTeD5xSstaGEG/sf4WlsjB/jGZDBewbKTGVhvfT0N9i/kY97JYtE+XKMOuWx+JwLlICTjbEXRG2x9FisCnNKEBy6+/qaRqWurxN+fNAaTCnq4eTVaW+ggJsbfVDg7MJkPyyCdbB5fQ3wjr4h4mUdY3GQaX8SgiQ098m2hgSzyRAIiNQT62wpKWZM/dE6km6Vr132AG0HkOaSIBnlsGra2fbzh7UcPhvtIW9UliHJF5hB9F6SNMIkPwiWK2Jj53H8oXb/gfL4CaksOvGdp39HnLgJAI8F8xcU/918vK6HP/hpfSX0WeJb9iR5oqW5xAguVXgHpH/hsqAbtuGc7petGriDjvYmt7yFAI8twz2V2PmYAb0w02kGNWakAuQta/p98AzCPCUn1ZXxhaDnIT4dbSJ9JL60F+uANnuHRB4BgGSX6uGlXX7YKBNs6XYRAQ6j0kyAaa9E+wMAjxXCby4XTbQppnZ3sAiGPFPqgruaKyYZhDgqUqglwbAwXzht21DBGxBP/EvS4BdrH4P7AwCJDKVNgLdVhJPRZEbfbh9TX30lJPesGOO9UbkGQR4ZifQCffLhloEm21DBCQsfx+xY471QZpBgESmxhJ027ahEhNv23CZViPdHBPcsGOO9UmaQoAnOoGLYAU8VgQ0oxldJ/2Jwo451v/YKQR4QoEL5/piLGH4bTSjq6RDUdjxjj++YucQIJFbixpwGUwY70LHJmBteO8PO6TWD+wkAvxVgavP3AIcadOMt+JoaXcror+D0jfs2P7b9zSLAA8FXjeg37ahIqAZTOg66ar/d8OOGGvvSNMIkMgtZQzot7Ei07ptg21qKqTPpGTpF3qMtXdEnkeAvxyH+OxD4DFuBzFjjaOTTpOSHTHW3hNmEuCPClx9hjEGOjZYIUAsgF9gR4y1D6SpBHgoUGDAQ4ADLRrdtg22p6mQTgPgbgdfAH/AcwmQyJtrBjTbSBFwgQARAF9hR20AfsXOJkAiNqvIgIcAhzk49RsEiAD4CjtcsecZPJ0A3zBrhgGlAlz1O2PJSanah9GK3YXEEGx6g/+IygEwxvCOtTZc+fVGjHEXE2YU4Iti4MolBWhW7RHQbxk4CFBGlKjPJuV18rhfoMJ4LH4bJ08pwOcKXEoK0BntJ6dZFwgBykj5dlDuvmMqCdEmqoVIgnZSAT5V4FIyAbLyYxDeMvAQYJMjkNCB/eQBMFpW97r5OK0AnynQFEyAZHQ3YUzWJiUE2EAVsQ/9EQv1R5/oeu1UmleAxOaEiKQJkLzuCLjm+BkCbKCKQJ1gr50q63r0tp1YgE+q0b5cAqRFcwR0WQEQAhTBKWsx1gv/G0ZtuM0SdJxagN9eHbL6YgmQvOYmTJadIcAGW4CdrH/f2D9QHG7TngHPLcBHqS3lEiAtepsweetzCFBIVLhEvEzSu/yVXGKaXYAP6+ClWAIkp7cJk+NmAwFKiSMGQKvef1kGDNML8MFrrlgCpFXrYwH9lgFDgEJY7SLxCkH3+jfX0hECfNgJdKUSoN4mTF5LGwKsL8BE3RAVn39IrhICfFSCK5UAaVXahNky8BCglDTiCpj2d9Sr/by8GAJ8rEW7EglQcQTMK0FDgFLSgB2YDyv00O4Jpw0NAX47C3FFEqDaJsyaEwAhQDFW9z6ZjNRFACRKEOCFYORKJECtTZi8EjQECAF+E0sPZoj7OSwE+OQsxBVJgOQ1NmGyStAQIAR4R9J/BPyJhQCz4cMNrkgCpEVfEyavBA0ByrGaq3JSkvYO4I0EAV5aBrvrCVBnGTqrBA0BIgHeY/vYAnwDArx2GuyuJkCdTZi8AAgBIgF+G6qTO5wjBHjtNNgXSIDktDVhskrQECAS4AO2kzMQCPCyItYSCZBXXU0Y3jLwECAS4AMJAlQ2Z71lsCmQAMnoasLklaAhQCRAJEDlc9brw6wFEiCxrmOQrBI0BIgECAFqn7PiUakrkADJaGrC5JWgIUAkQAhQ+5wVl4rLtQSosAydVYKGAJEAsQeofs6aBvQFEiAtepoweR0YCBAJEAlQ/Zw1DbhcSYAKmzBZARACRAKEAPXPWdWAXCABkpomTF4AhACRACFA/XNWPTEwBRIgOS1NmKwSNASIBIg9wA7mrHtXiC+QAGnVcQzCWwY8qQC9Ow0SoGoxQIAFcE6eANU1YQQBsIYA3XqWhb6jpyi0TJkAIUBtc35Bz20Ujt7QVoYWlKBrCNCrjpMZoyIBqhYDBPiHAjTi7LVqK0FDgEiA2ANUPOc/NAnQyY9fnYYA6CBAJEAkwC7mvKFKgEZewFsUBMCVKgqQIcCOEyAEqG3OG6oE6EgeAb2uEjQEiAQIASqe84YqARrSFgHzStAQIASIPcA+5vyHJgE6ekNVGVrQgakkQIIA1bw+HAkQAqyXADWVofNK0BBgEQGO+AMEAWqb84YqAToiUtWEyQuAEGARAfbx9jQIEAKskgDlEdBpKkFDgGIBdvH+XOwBQoA1EqCuCJhXgoYACwlwwE1AJEBtc95QJUBDRJqaMFkBEAIsc3WpkxfoQoAQYI0EqKgJkxcAIcBSAhxwDQwBapvzhioBmotNPNZTgoYA5QIcMAJiD1DbnP/QJEB3UUNGTwkaAhRf3T5gBEQC1DbnDVUCNBcXoquiDgwEKL26uO/DNWEgQG1z3lAlQEdEapownBUAIcBiVxf28RbBEKC2OW+oEqAhRREwKwBCgGdZCu+XxS4MiD1AbXP+Q5MAHT2DMyKgV9OBgQDFV7dnEXtYBSMBapvzhioBmstZbFHTgYEABVd32GKwkxAIUNucN1QJ0F3fjfN6AiAEKLy6tO+jhUAIUNucN1QJ0BCRkiZMXgCEAIteXdhziVb3ViD2ALXN+Q9NAnQFGnlKStAQ4IWr411AtEmvBJEAtc15Q5UATQEdOR0laAjwytWFXUgM1iYh/AEECAGqS4DtmzAmJwBCgKUFyHH/M2KMIdiUGAKEALUkwKwytIoSNAR46erSroAYbGLsAUKADRNggQi4qChBQ4DXrs7uSojBMhIgBNg8AcojoG/bgWEIsIIAKeyKCJYhQAiwaQKUZzLTtANjCAKsIUCKuyqiTRAgBNgwAcp35bhpCRoCzB9V+0HIKwcy9gAhwKoJUEUEzCtBQ4CZo/ZrwH2PCQkQAmyTAOXNvLVlCRoCzB21awPu0TIECAHWTYDty9DyEjQEWE2AxKpOQv4RGAKEACsmwPZNGHkJGgIUjtpZG+aewNgDhACrJ0B5BPTNStAQYFUBUtK4DH4jMBIgBFg5AcojoGlVgoYARaP2vwzedwsBQoCVE6C8ncKNStAQoGTUMUJgTBAgBFghAbZvwshL0BBgfQESK90J3ANjDxACbJcAqVITRl6ChgCFow6yDo4JCRACrJgA5RHQNSlBQ4DCUYdZB1sIEAJslgC9QE4VS9AeAhSOOlAKDBAgBFgrAbZvwvisAAgBXhh1lL3AyNgDhABrJUC5n0z1AOggQNmocjgpjIGRkQAhwFoJUC4orl6ChgDFo8phq243MDIECAEWS4CNy9DyEjQEKBv1MmyV5cDIECAEWCcBylsqa90OzMoQYIFR5WthTUEwYg8QAiyUAFs3YeQlaAhQPOpwErRIgBBgnQQoD2lL3RI0BCgctSScrA4LJggQAqyTAOUR0FctQUOA5UeVa/CvPRghQAiwTAJsWoaWl6AhQD0CvMGc3rHZhOv6tNgDhABLJMC2TRh5CRoC1CfAD1ieIy+tpxkJEAIskQBblqHlJWgIUKsAr5KERcMAAUKAVRKgXFRrtRJ0eyuwasUMJEDxDScMAUKAVRKg/KzCVXsVCBLgwAJ8Q6BAiz1ACLBUAmzfhOE1JwAiAQ4uQMEDuCISIARYJwHKI6CvU4KGAMcXYP4r6RgChAAvJsCWEVBegmYIcAYB5howQYAQYJ0EKN+u4yolaAhwCgFmestiDxACbJIAeTuNqVGChgAnESCFPYOABAgB1kmA8j9yrVGChgBnESBFCBACVJcAc3zlypegIcB5BMj7eSIECAGWSIDty9BeUIJubAWvWjHDCjBHXRF7gBDg5QTYqgkjL0FDgDMJkJEAIUB9CZCWtsvLg5UgwJkESBEChADVJUBBBCwUAA0ECAFCgBBg6wQoLy6bsiVoCHAuAQbsAUKA+hKgoAlT6C44CBACRAKEAJsnQPm+nStZgoYAIUAIEAKslABbRUB5CRoChAAhQAiwXgJsUYaWl6AhQAgQe4AQYL0E2KQJIw+AECAEiAQIASpIgDnm8qVK0BAgBAgBQoAqEiAtRcyaVYKGACFACBACVJEAyQnNJS9BQ4AQIPYAIUAlCTCjwOzKlKAhQAgQCRAC/CR9wmUTYIMmjLwEDQFCgCoEaEMeFgIsyv0r9GOwqXkClEdAeQkaAoQAdQiQ455HZAiw6itTo+VaCbCIW5cSHRgIEAJUsgcoMCAEWAK2cX9BTA0ToLwJIw+AECAEqCQBEnHINWCCAK9jY8b3WJQAqzdh5AEQAoQA1QiQKOyZJAiw+svyA1dOgHKD8dUSNAQIAWoSINlsA0KA9V+PkConQHkErP8kaLkVeleM7qsbcA9QZkALAYp53HQINqXEnJJ9WBbbFglQXoaWl6CRACFAVQmQKGUbEAKUwnE/CIm+winsB+FSAmzZhFlzAiASYLdXN6wA8w0YIMDL/ov2l3wYxAmw/o+evASNBAgBqhOgwIAQ4EX/2d+XyFGcAKtGQH+lA4ME2O/V9bYHyMKV2SkCBHjFf5HPfMqhbgKU+1XegYEA+7263hJgovOwoBINAYr/EYSTnrTtEiBvp2F5AIQAO766kQUouimkpgBpQAHau7H5K68+i1Q5AcoEKw+AEGDHV9fbEjhQHiVvCtkbCpCpD/iY+rDhi2ch3AwY6yZAmclWcQkaAuz56noTYKSDxjeF8HUBxoyr6IPbROGHNB/4IQNaaQKsWYZ20hI0BNjz1fUmwJ3/zIC2pQAtdUG6/3ztz99SPj5EQQKs/dMnDIAQYNdXd4nYUIByM9hCBgwtBRioC+K90ez+Anv/360sAVZuwshK0BBg11d3iSIrV96Fa+DGN4WwyJ/yyNwD6eEbZvdX8IMwWyVAcvl/g9s2RZcFAaolldGWMJ+1rkTbAhdo97E2AePDp2vvdEic7LFHeG9MQQKsHgFZ0IHhvgS40iMQoJxY5vA2CuTU3oAcC+xSpn2oNTAfsr4T4DPn32fg2CABSv8KnxMAVVjh0rNfIUApqZC1oiwCNi4E2hIVvrQPVYSxh81eCPD4Ten+O5CaJUA+H48EJWgVVvAXzmwgQClc6ugiSN3U8qaQVGb3bh8qAsbjw30tQD5+093XNEiAAslmlqCVWGHTvAYeVIAcS6U2K1ifts6AHMsIMOwD7QIeK+CfBEhPz0limwSYZ7QluwOjxAqL5gg4qABjsfZe2i+f0lZ/U0gspGe7D7QITjeX5QiQj+FqJUC5HnxmCVqLFUzGNTPdAQFSizxFP7ELDVi/El08uPG+j5MB7c34OUtgisdsggRYOQJmBkAtVnDbptcyIwow139BICbBH1ipEs2xnLXiQAYMx0WePQQ5vsoKEmD9CMhZJWg9VljlJ9cQYPtmsdxL8pMQ+ZtCUpa0YtErCJqXwfGMANPjet7KBOia/AiarBK0HiuYTW8GHE6AHPdcuNh58oFto24Ogmxabtao+Kbg/RN+LcDjhSDx8SMIFROgPCCtWSVoPVbwWw6rp39AgJmkCgvWuEuISWTAyqTSG5G71boQ3j95Ugz85Nm35Tg6aZgAyWwVMJqssGxZLJ7+BwLMIdkokkIlK0XL6gzIFf7+aJPCpTB/NdmJhyFcE6ChOhFQjtdkBb9lsjj6AAI8B6dDfrnEs1lC5oaKK/gapzNROGiwSZcGMwRo6YClCVBZBFx0WWERTOA8UVcCtMG2/xVCiNeckTIOJ2QStImVGDBVjqAxxhBC+38FfEGAIT18WfsE6JUFwPICZKHGF+Oc957rUXDUuPdIPBMmChBP86ezUtg7JJ3cA3wkHu4ssAcoZ9EVAMsLkMzWPYMKMJ3qp4xBojO275AcAVp+J94vfq+fAuuKgE6bAGnZemdMAQY6AXc52rMAOKjtmb4Tf6zBpBdfaGUCdKQqAq56Nsb+sW6dM6QAo47D2Q9UBMA+P8eUX4QOh+gOxEVoQ9dwijowlQTot84ZUoCJ3hh1Z+xZ2B1zEZxef2T2hQAfFsEF7gXW04RZFR2NHritb0YUYKJxpfAN1lJGbPM52l+eBmOf3rQofhqMpghoVAqwdwMOKECrp6GsSPYdbgPyD//PeiVAik9ycRI/D1BTBGSdAuzcgOMJ0Gq6R0PVsL0ZMJ15GsKjAPnJ14bbboEkAWopQxtN7eBxDDicAAN9MsU2oCUa2ICJnhB+eydI+BYfufU7QQ54VVKCrilA8h2fBY8mQEs0jwHD2MOmnzJ7eiVAPhbBD97n/ASoJwIaVfeHPcD99gEHE2AiGlsK32Q/cAZkesYh/zsBvn4aKsXbVwgSoJpdQK9ZgB3fEzKUAGMimseAljQ+mqsg6UeHp1cCpHicBN9/gSQBKjkINrqeEDDOMngkAUamNwaPRXd6EJD6+UDTj92l+FyAh+TDk9/fPgHSoqIDmClAJU+/gQDzE9Hoseir7Af3ffr5+u2DAF8sguPxpwkToII7gl0HAiTf407gMAK8X/6qel6fKtl3FAL5l/p6eiVA/pL5whEARQlQxTnIou0heS9w/a2DBxHgTX/jx6ISry3iPqZNvwX2dCfAp4tge9hUlABVLIJX7kSARKY3BY4hwJsRpgiBn7KfQIEv54xf9wGSfYfpDvtBOvxnqVgCbH8+4NQ9JnmcFDiCAL/ob/yVYUxUBNZ/+P1yUj75zTj8F4n+LgGSV+E/iQDH3wvsX4A3/U0Ri0IimmZcPnFqZU85PjKVSoDtuzBG4YsyfsH3sxLuXYCBqSRW97iRaaJx05kt28AnEn0iYQKs5x7VF7EQ0SQO7FqA0TIVhnU7YU9UlqR4JZzOHVpZ/m2wRFQoAbY3oFH5qrRTuB4c2LEAY9LzGvb/6dCAiudNZ4/tLf84UyIqlADbn4Q4ne+KPIs32vcDexXgLfzN58BUZV6NHzPTT6RXr3Hn+2kiE1VJgA0eGLB6pS/LzYGdZgt2KcBgmarCmpfClmrA+iSYMk/t47PXSQcmUpAARcvghbW+LTwXds4sKhfE3QkwhsTUBNaaAysZkIiT1WTBVKDJY4lIRwJ8g82WweKJRhHg/3hnjFlUmbAnAcZgE1NTWJURbgSqx6cFVQydLrfXLRORmgSYdTa6OKLhBPgF9jVZBhNgDOfc19XiMMYYQrDWpqTKgB9wSvavRcgZ7fWM0qQzZjn3y1MF3LL9ylrlr/anBzfUOQUFaMNfcbNDYvpT+JaLQrxuvNtIfO0+vMjUCk5v2DdCE/5r7w50EoahKICusy1z/f//NUGNJBJkGEjbd44/YDTcXPpetwvbvwZWp23p1O2pQE25LHQTgFyJg2P2n8S7MEwCdu93RX8/7UvnSj6fhtX2pdaa0pqL/6sAnM1219VcCfgf+7mhf3bsfbA/zbYN9gv3TwCO5/DIufuSA1cIQK56k4AgAMN662MhEEYnAIe0S0AQgGF1uBAI4xGAg5KAIADjurEQONq+L1wjALESDU+0CsBhSUAQgIGdOnk0NgzKV+ChuRQCGmBcLoWABhiXSyHwigAc/tGHk3IpBB7WBODorETDg4oAHN/+LgHhuTOQlhc6ZSEQHrE1ATgDCQjPLYDNR6ZjEhCe+gL6utAzK9FwTKmtWQOchQSEg/nnCHAiLoXA/dZ2iFcwd8+lELhTSa01R4BzcSkE7lHWdmYNei4uhcCfcmqfLMHMxqUQuKVcpJ8Z8Hz200EmIQRR8ppq+2YEArxATrWHn/ZFAQQu9LVv0iMFEHhMbqMzAgaiNsBqBAxEbYC+AANRG6AvwEDUBmgCDERtgA4AgagNUP4BURtgNQABgjZA/Q+I2gCT/AOCNkD7L0DUBij/gKANMBl/AEEboPoHBG2A6h8QtAEm7wAGYjbAKv6AmA1Q/AFBG6CzPyBoA1zFHxCxAVbpB4RsgNXcFwjZAFPW/YCADTCtqh8QrgHWtDr1A6I1wJTWnD3oD276ANbVxRR2JnhDAAAAAElFTkSuQmCC;direction=east;" vertex="1" parent="1">
          <mxGeometry x="195.73" y="679.62" width="108.54" height="56.13" as="geometry" />
        </mxCell>
        <mxCell id="c_Fl5ofFOobAnzRydgGP-24" style="edgeStyle=orthogonalEdgeStyle;rounded=0;orthogonalLoop=1;jettySize=auto;html=1;exitX=1;exitY=0.5;exitDx=0;exitDy=0;entryX=0.5;entryY=1;entryDx=0;entryDy=0;entryPerimeter=0;" edge="1" parent="1" source="c_Fl5ofFOobAnzRydgGP-11" target="c_Fl5ofFOobAnzRydgGP-4">
          <mxGeometry relative="1" as="geometry" />
        </mxCell>
        <mxCell id="c_Fl5ofFOobAnzRydgGP-25" value="" style="rounded=1;whiteSpace=wrap;html=1;strokeWidth=1;fontSize=15;fillColor=#dae8fc;strokeColor=#6c8ebf;" vertex="1" parent="1">
          <mxGeometry x="574" y="675.75" width="160" height="60" as="geometry" />
        </mxCell>
        <mxCell id="c_Fl5ofFOobAnzRydgGP-30" style="edgeStyle=orthogonalEdgeStyle;rounded=0;orthogonalLoop=1;jettySize=auto;html=1;exitX=0.5;exitY=0;exitDx=0;exitDy=0;entryX=0.5;entryY=1;entryDx=0;entryDy=0;" edge="1" parent="1" source="c_Fl5ofFOobAnzRydgGP-26" target="c_Fl5ofFOobAnzRydgGP-3">
          <mxGeometry relative="1" as="geometry" />
        </mxCell>
        <mxCell id="c_Fl5ofFOobAnzRydgGP-26" value="" style="shape=image;verticalLabelPosition=bottom;labelBackgroundColor=default;verticalAlign=top;aspect=fixed;imageAspect=0;image=data:image/png,iVBORw0KGgoAAAANSUhEUgAABQAAAAKWCAMAAAAhosQVAAAAJ1BMVEVHcEwAYYoAYYrljwAAYYoAYYoAYYrkjgCpgDPkjgDljgAAYYrkjgDlPBxsAAAAC3RSTlMAuYV6VSzinRXNQPxx6ccAACllSURBVHja7N3dbts4EAZQDkEOBPD933ez6KJbx2mThpJM2ef0ukauPswPKRYAgK/ovdVa25teAF5Gq5HjFxlVDAIvoNccH4oqBIFn1mP8QUbbCsAz2mJ8SgYCz6jleCMDgddTx9dFKwBPo44xRCDwiur4W1l1wsAzqOM7nIwBrq+PbwoRCFxcjiECgZdUxxgiEHhFfYwhAoGXFGOajTBwSX3sIGsBuJw6dpGORgNXs40PRH0TYRQIPLX2p4leb5Hj6/TBwKXEZwuNXlMfDDyl8U4r93rog4Hn08atKB9rMb5IEQhcRP04vmbKwCgAV1DHjSx/sNUcX5HaYOAK4u/61xYSEHgWOW708pkeBoHAc8hxo3xBDwkIPIO7APyKXh2KBq7vLgB3i8DwhRhgbXE3A/yirVqFANcW3x/d9dAGA1dW7w4x7xmB2fTBwLLquFX+TsvxqcyIqLW21nrXFgPL6ONWK5MR+NVAbKIQeLTpi7xbHd8U1WlB4JFi3O2BjysC70VVCQKPUset+t0fEYLA1fQxUQLe7IOFIHA1OW7Fox6Xy7AYAc5Vp0rA//Uc81IhCJxoG+9E+X4CykDgUup4p01slGUgcCV9vJPliAT0yjqwoNjvIwZ1fMYbw8BK+nivTzyzuZ/0NRng/BIwJ9I0hyoQuI6+55f8tjpEIHAddfZRo/trIdYhwDVsue/37Hvkj3/jc95XAh6rjfei7KK3GpH6YGBh8UkCTtp6b63VNxGRqQ8GFtLz1LfNe6uR+mBgDW3c6eVYvYU+GFhBPORh3xapDwYebcuJMeCMFq6GAA/Wx4cJuFQGKgKBY9Rxp5WT9JqWIcADxe8XIeuUgZYhwEljwNzKeXodX1G3AvBEY8AftpaKQOAx2qdDtzU6YcsQ4NnGgD+0UAQCjxDnjAHnP6gVJoHAzvrn56EXiUBFILC3vsjZux4mgcDZ6sSl4F21VAQCs+bHgOXOIhFoEgjsK9dogj96YWmV6hR4Vn3caeVBtnA7GDhTmzgLs7sediHAieoSZ2F+MwpcqD4FntCWS4XMVrXBwGn6uNPLA/WwCwF+cc2Xgr+rpTYYOEmsFjFbaIOBk+R4byuP1VIbDJyir9YEl7JVRSBwirpaE/ympwQEzhCr3An+VTgUDZxgyxUrrJYGgcDx+i6HAbfe27+23SaB2mDgeHVyD9Jbjdy/OGsSEDheTu1BWh70/dIttMHA0frcHqQf9v3SKgGBo9W5ozBxWDT1dDEOOHkTnBP/fd9oCoNA4Fh9LsHaIdF0/9vrXVsBnkAdt2Kd+yQ9vZcEnNoE99lOdSu7qVYhwJHaZA8bR87nmlUIcKScq+C2PLAELD0lILBuCdjzyBXtFpbBwGklYM5ukrPsqkpA4LQSsM3XkLtqjsMAh8nZUKnHPjHXUwICB6nTLWwcu53oIQGBc66DtNlfaGd+KTodiQYmxHRRFUe/sl4diQYmHDnD64e/sNkkIHBGD1wnS8ByhJ4SEFjwKOBthmaRgMBlxPw5ljj+ePIWEhBY7jrcm3bGHV0JCBw+BMypcCrHqRIQ2FvO98DtlKPJdfyWBAR26S3rRIj2UtSAwHW0HXrg9rMAlIDAhWx79JN5zs20JgGB5Xrg9l8GSUDgUuq4Fd98YKmVEzSPxQE76nv0wPWsCqz5Ohawo9jhxaGtl5N0CQjsp10rSCQgcOAeePFpWvNSErBUD3ymLgGBF+2BJSCwo/FOWV0fP12segVWc7UeuJTmwwjAi/bApTRXQoBVPox/uuaxTGAX9XI98M3ffL34BtbRr7hMrQ5EAy/aA5dSHYYBlngg/RHCYRjgRXvgUsJhGGBeXLEHLltaBQMv2gOXLS1CgFnbNXvg0tMiBJgVF62gmkUIMKtdswcupVmEAC/aA5dSLUKAl9wD/yssQoAX7YHLZhECTMrLpkdPY0D4h717221kBaIACghQS/z//x7ndpLM2Ol22xmpYK3nGSl5SGkXVdA8pER7F/pTdQwIPKQF3iMpjgGBJVcBXxTHgMCaY5CLbh8aWHIV8KJ1x4DAkquAF9UxILDoGMQxIPCYHjo8ZduAwHKvAr7bus/EAWuOQVJqmmDgvBw6AqZqFwZY7eNI/8t2YYCnVZBolaPbhQHOqsEjoCYYOK8Hj4DFLgxwVgkeAVPWBANn9eDRyS4McFqJHp2qJhg4aQtfODTBwLIRcOsmwcA5W/jCoQkGzirh71EUTTBwUo8+QN26STBwTgnfO9ZxVQ/3iwD/XA/fO2qCgZNq+N7RJBg4q0/bBCeAn7X4vWM2BwHOyeELx9YtAwKntPiFQxMMnJTjr5BogoFzth7+wxrNMiBwTo3/aSHLgMDTOsgcrQJaBgTOafE/L2kOApxU4ldAcxDgpB6+ArbxLvi37oB/rsWfIBQREDinxK+A7oMAJ/XwM9QqAgLntPjpKYuAwKrHgE0EBE6q4dNTNggGTmo9eHraREDgrNaD36QoroMAZ7UeexC8dTeCgVW/kSQCAueV2AUwiYDAaS14AazeBQROy7ELYOqWoYGzSvDmsdqEAVYtgCkbgwDPOQNM4VRjEOCcHD85dWMQ4Iw2Qd2oxiDAimuAr7oxCHDCFLmpGIMA96tTVI3NGAS4X56jb8zGIMDd+hypqXoXFbhXm6VmGIMA9yqzdI3GIMC98hwdcErNGAS4Uw9/D85tEGDdayDvitsgwF3qPC3j5lEs4C5lmg7Yo1jAYo9BexQLOK3PVC18GwS4Q5uqXzQGAe5QJ+qAU2rGIMBxZa6w1I1BgMP6XMdlPg8HHNZmGoFcbEMEBA6qczwE86nYhAEOynN1wCk1mzDAQX26oJRtwgCHtPmOykRA4Jgy4bBUBAQW7YBtwgDHbPN1wBfd15GAfXXKczIREDggT9gBuw8HHNLnnBNYhgZWXIJ5tdmEAfbUWQ/JPAsI7CmztoiWoYE9edqAJAICOyY9AvQyNLCrTdwgZsvQwGoXgUVAYO0ZyJcIONFX3wEzEBEQeIK5w1F2Hw5Y7h7Iu+o+HLDYUzAiILD4EFgEBNYdAr/o7sMBaz0G+Km6Dwes9RigCAisvgUjAgKrfRBJBASsAYqAwLprgK+6+3DAqgWweBULWHAP+tUmAgKrFkAREFhyD/rV5lUsYNUCeD0CdhEQ1rZIAfQwKvC3vkYBTMWrWMB6V4FFQOCGZW5HeBgVWLYANg+jAqsWQBEQeHoBbFGKprfxgScXwK2HiY1dBAS+2h4tgDlODSkGwcAzC2CN1EaKgMATC2AL9YiWCAg8rwBuPdSzKtsQAYFnDUFysFGqCAg8qwCWaCWkiYDAFw9sxdV4JSSLgMAzCmALeIOkDu8CAo8XwK1HvE/RRUDgf/1sJcghvyZXnQICDxfAEvMVhU0EBP6XzxWCGrWCFBEQ+JDHmVa29aifmGxDBAQeKoA5bgXJIiDwrpypAzVwBWnDu4DA+QK49cgVRAQErg8F7vs/E23CxCngwG+Vg3ZPExlzEyb1EbqAA0/T7q9iOfggtQYv4MAvvZFX7yiZUTdhREDg3d0xrowR/BRNBASuxaF8rGIGH6SKgMCpTeg6RvgIWIL38MCvFMB+8N8Hj1DBxzjA76ShdmwEEvwUrQT/+YFfmQjUY6UjeITagv/8wK8sApaDHXDwt+VFQODF+CbvRqeZI2CcU0zg3+/B1PFigk0YERD4u6ndDvzjCTZhth68ggPPUO4pYX1MHgHDVHDgF8bAZWdiMksETN02NHB8CvJZLGdYhq7RfwHg6VGoH+gbp1iGTj34JBv4t3dB+pg/AgYq4cDDyvEENMZMETCHP8cEHtUOR7g2xkwRsI0bcpwiDjxofHfv15By2AhYxi1ZCoRF5KMdYBlX1BY2Am593NRLnEIO/INNwHx9cS5uBKzjJ71YCoTptaO3Ofr1ux8t7iJJHm+cBsKy+rEEt92YeQSOgG28cxoIqzq4CFNv7Q3HPQVMdezqSiDMrI5v+n0FMHQETHkogbC28V29ZwicYkfA1scb8xBYVL5dv/aHwC9y3MsUdbwzD4E11fHd8QLYUwoeAf8PtuYhsKbtUIDr148Ao0fALY8XOmFYVT4yBvnp4YAW9mnoaxXQBRFYST0wxm0/vv2S425Df3TBDgNhUeO7fHRakD60sN8IftHyuHAYCGsq+xGwXp+BTBEBU6pdCYRVtf3yVX5+/K9F/7xQzeOD5WhYy/4YJF8dAk8TAS9a6VIgrKju7rHkndfjW9zH8T/VbBwCC9rdY+k7BTDlwNvQX9Tcx1H2AmEOZS8Cjitami0CvqqlOwqElWw7+a2NK1KaMAK+aqXrg2EdOxGw3dqC+dTm+sBkK3kc0ONNe4BPh26z1QOfwMyBL8Rd1WoWAmEJP++xlAMFsI3wqzDHeuEJf09Y3F8RsO0VwJL+kKNvQ5+9KNeFQAjuege7vwb4qY2J5iBf1SwEwty23Yse+9vS06zCXGmFnQTCzMoPFa6Pv21pmQj4XgPtBMK8+u0KuLMF86HMtQpz33FgnuLIE1ZVbx5ttb0h8Icc+mHAfVvpQiDMKd862mo3z/0XWIX5Q8tmITCjduvGfz38x16nnYN8asVCDEyojCtyLT++BTPvleCbWhYCYT55HJaua33qOciH2s1CYDatj4N6uqHOdiX4hmIWArOp46CSbimLNIWta4NhMmUc09JNef45yJvqXghMpp/sgD9tfYE5yKuWtcEwla2f7IA/tSXmIK+qNhim0vrJDvhTXaUJTmnLpsEwkzp25fSzskoTfFEtRcNM6tkA+KksEwG/nATO/RQErKI8/v5nXmIZ8F1xEAgTqXsj4H19pVLQuoNAmEd9+BMYW1+nCb4oDgJhHq0/+uJJ6ws1wSnV7iAQ5pEfveXQ+kJNcEpbdhAI82j9wT/ntlQTnFJ1MQ4mUvP4rrR0j7bMMuCblh0EwkS+fgst1y3dqa7WCxYHgTCVVstFbemMulYTnFLtDgKBd3WlSfCrbCMQeFeXy0G1OwgE3rTFmuCUWnYQCLxpqzXBKRUHgcCbtl4NaF0FBF61vlgTfFGMQoA/KmBfpgRs2SgEeLH1hS6EfKjdKAS42PKCFWArKiDwIi93DHjRulEIcFHWa4IvigoIXNQlC0DLKiCQUl3zGKw4BwRSan3JZZDaVUAgbXnBY8AvbfB665DAF3nJU7DXwr/Y+9jA3+qaPWA2CAFSan21bcBXxTEgkNKWFxyEvGbAxT6TB1xTVpwDtDHGUt+KB66rK84BikEI8KL19eYAm21AYPIKuLVWay0X+Q9jOAYEXrQ+VwRqtZaSex8/sQ8NzFUBWy25j2McAwKzVMCtljwO8qU44IvWI68Dto/cpwICS1XAWvq4m++lA+ErYP2MfiIg8B9757oeNwoE0RYX0SC9//OuLzuRZzxjixbgBup8+bdxovbEZwsoSRMZ0N+yHxIgAGAqA7JZt7Is/QwPAJjZgG7ZirIuDkVAAOamjzaMN4Xtt5hOtA8AqMqi/Sig9L7fahD9AADHc1IWvUbwC6IfAGDOjUBXMPlBfgCAJxitBnRFzLcuxnm9IRcA8Ld4o9OAFyPfYhzMBwD4FdZ4Fuw2Ee/i8yqFDgAA9QS4Lg7mAwAMgUG1GQAwK7yi3wIAmBVzTn4aNzABAOAa/Lv8sOkHABiUZXvFCvcBAMbGb0/R2twGAICCrHinGwBgVtz2CV5sDgCYD0RAAMC0GLzQAwAwLcv2nBX3fQAARsdvWAQDAGbFwIAAgGlZYEAAwKz47Tna3+cEAAD1yoCq3+cEAAClFsG4Jw4AMCk/GBB9QADA2Ph1w0YgAGBS3LZhGQwAmBSzvYHb4gAAU7JsP7AgBAIARubdgDgLAQBMCa/bhp1AAMCc/G9APa1o74xZlmV9Z1kW0/FbSvh9lvtR0DEHQBV+3TYd62DvzLI+vYQO31DszbLivVMAqIfX7WcW39gXz8XR0YakN8cwoxgdgEG5N2D7WrR3y3aGtQ9rsFm3M0CCAOjgEFDzdTCbZbun72YOm+2DkZTeD5xSstaGEG/sf4WlsjB/jGZDBewbKTGVhvfT0N9i/kY97JYtE+XKMOuWx+JwLlICTjbEXRG2x9FisCnNKEBy6+/qaRqWurxN+fNAaTCnq4eTVaW+ggJsbfVDg7MJkPyyCdbB5fQ3wjr4h4mUdY3GQaX8SgiQ098m2hgSzyRAIiNQT62wpKWZM/dE6km6Vr132AG0HkOaSIBnlsGra2fbzh7UcPhvtIW9UliHJF5hB9F6SNMIkPwiWK2Jj53H8oXb/gfL4CaksOvGdp39HnLgJAI8F8xcU/918vK6HP/hpfSX0WeJb9iR5oqW5xAguVXgHpH/hsqAbtuGc7petGriDjvYmt7yFAI8twz2V2PmYAb0w02kGNWakAuQta/p98AzCPCUn1ZXxhaDnIT4dbSJ9JL60F+uANnuHRB4BgGSX6uGlXX7YKBNs6XYRAQ6j0kyAaa9E+wMAjxXCby4XTbQppnZ3sAiGPFPqgruaKyYZhDgqUqglwbAwXzht21DBGxBP/EvS4BdrH4P7AwCJDKVNgLdVhJPRZEbfbh9TX30lJPesGOO9UbkGQR4ZifQCffLhloEm21DBCQsfx+xY471QZpBgESmxhJ027ahEhNv23CZViPdHBPcsGOO9UmaQoAnOoGLYAU8VgQ0oxldJ/2Jwo451v/YKQR4QoEL5/piLGH4bTSjq6RDUdjxjj++YucQIJFbixpwGUwY70LHJmBteO8PO6TWD+wkAvxVgavP3AIcadOMt+JoaXcror+D0jfs2P7b9zSLAA8FXjeg37ahIqAZTOg66ar/d8OOGGvvSNMIkMgtZQzot7Ei07ptg21qKqTPpGTpF3qMtXdEnkeAvxyH+OxD4DFuBzFjjaOTTpOSHTHW3hNmEuCPClx9hjEGOjZYIUAsgF9gR4y1D6SpBHgoUGDAQ4ADLRrdtg22p6mQTgPgbgdfAH/AcwmQyJtrBjTbSBFwgQARAF9hR20AfsXOJkAiNqvIgIcAhzk49RsEiAD4CjtcsecZPJ0A3zBrhgGlAlz1O2PJSanah9GK3YXEEGx6g/+IygEwxvCOtTZc+fVGjHEXE2YU4Iti4MolBWhW7RHQbxk4CFBGlKjPJuV18rhfoMJ4LH4bJ08pwOcKXEoK0BntJ6dZFwgBykj5dlDuvmMqCdEmqoVIgnZSAT5V4FIyAbLyYxDeMvAQYJMjkNCB/eQBMFpW97r5OK0AnynQFEyAZHQ3YUzWJiUE2EAVsQ/9EQv1R5/oeu1UmleAxOaEiKQJkLzuCLjm+BkCbKCKQJ1gr50q63r0tp1YgE+q0b5cAqRFcwR0WQEQAhTBKWsx1gv/G0ZtuM0SdJxagN9eHbL6YgmQvOYmTJadIcAGW4CdrH/f2D9QHG7TngHPLcBHqS3lEiAtepsweetzCFBIVLhEvEzSu/yVXGKaXYAP6+ClWAIkp7cJk+NmAwFKiSMGQKvef1kGDNML8MFrrlgCpFXrYwH9lgFDgEJY7SLxCkH3+jfX0hECfNgJdKUSoN4mTF5LGwKsL8BE3RAVn39IrhICfFSCK5UAaVXahNky8BCglDTiCpj2d9Sr/by8GAJ8rEW7EglQcQTMK0FDgFLSgB2YDyv00O4Jpw0NAX47C3FFEqDaJsyaEwAhQDFW9z6ZjNRFACRKEOCFYORKJECtTZi8EjQECAF+E0sPZoj7OSwE+OQsxBVJgOQ1NmGyStAQIAR4R9J/BPyJhQCz4cMNrkgCpEVfEyavBA0ByrGaq3JSkvYO4I0EAV5aBrvrCVBnGTqrBA0BIgHeY/vYAnwDArx2GuyuJkCdTZi8AAgBIgF+G6qTO5wjBHjtNNgXSIDktDVhskrQECAS4AO2kzMQCPCyItYSCZBXXU0Y3jLwECAS4AMJAlQ2Z71lsCmQAMnoasLklaAhQCRAJEDlc9brw6wFEiCxrmOQrBI0BIgECAFqn7PiUakrkADJaGrC5JWgIUAkQAhQ+5wVl4rLtQSosAydVYKGAJEAsQeofs6aBvQFEiAtepoweR0YCBAJEAlQ/Zw1DbhcSYAKmzBZARACRAKEAPXPWdWAXCABkpomTF4AhACRACFA/XNWPTEwBRIgOS1NmKwSNASIBIg9wA7mrHtXiC+QAGnVcQzCWwY8qQC9Ow0SoGoxQIAFcE6eANU1YQQBsIYA3XqWhb6jpyi0TJkAIUBtc35Bz20Ujt7QVoYWlKBrCNCrjpMZoyIBqhYDBPiHAjTi7LVqK0FDgEiA2ANUPOc/NAnQyY9fnYYA6CBAJEAkwC7mvKFKgEZewFsUBMCVKgqQIcCOEyAEqG3OG6oE6EgeAb2uEjQEiAQIASqe84YqARrSFgHzStAQIASIPcA+5vyHJgE6ekNVGVrQgakkQIIA1bw+HAkQAqyXADWVofNK0BBgEQGO+AMEAWqb84YqAToiUtWEyQuAEGARAfbx9jQIEAKskgDlEdBpKkFDgGIBdvH+XOwBQoA1EqCuCJhXgoYACwlwwE1AJEBtc95QJUBDRJqaMFkBEAIsc3WpkxfoQoAQYI0EqKgJkxcAIcBSAhxwDQwBapvzhioBmotNPNZTgoYA5QIcMAJiD1DbnP/QJEB3UUNGTwkaAhRf3T5gBEQC1DbnDVUCNBcXoquiDgwEKL26uO/DNWEgQG1z3lAlQEdEapownBUAIcBiVxf28RbBEKC2OW+oEqAhRREwKwBCgGdZCu+XxS4MiD1AbXP+Q5MAHT2DMyKgV9OBgQDFV7dnEXtYBSMBapvzhioBmstZbFHTgYEABVd32GKwkxAIUNucN1QJ0F3fjfN6AiAEKLy6tO+jhUAIUNucN1QJ0BCRkiZMXgCEAIteXdhziVb3ViD2ALXN+Q9NAnQFGnlKStAQ4IWr411AtEmvBJEAtc15Q5UATQEdOR0laAjwytWFXUgM1iYh/AEECAGqS4DtmzAmJwBCgKUFyHH/M2KMIdiUGAKEALUkwKwytIoSNAR46erSroAYbGLsAUKADRNggQi4qChBQ4DXrs7uSojBMhIgBNg8AcojoG/bgWEIsIIAKeyKCJYhQAiwaQKUZzLTtANjCAKsIUCKuyqiTRAgBNgwAcp35bhpCRoCzB9V+0HIKwcy9gAhwKoJUEUEzCtBQ4CZo/ZrwH2PCQkQAmyTAOXNvLVlCRoCzB21awPu0TIECAHWTYDty9DyEjQEWE2AxKpOQv4RGAKEACsmwPZNGHkJGgIUjtpZG+aewNgDhACrJ0B5BPTNStAQYFUBUtK4DH4jMBIgBFg5AcojoGlVgoYARaP2vwzedwsBQoCVE6C8ncKNStAQoGTUMUJgTBAgBFghAbZvwshL0BBgfQESK90J3ANjDxACbJcAqVITRl6ChgCFow6yDo4JCRACrJgA5RHQNSlBQ4DCUYdZB1sIEAJslgC9QE4VS9AeAhSOOlAKDBAgBFgrAbZvwvisAAgBXhh1lL3AyNgDhABrJUC5n0z1AOggQNmocjgpjIGRkQAhwFoJUC4orl6ChgDFo8phq243MDIECAEWS4CNy9DyEjQEKBv1MmyV5cDIECAEWCcBylsqa90OzMoQYIFR5WthTUEwYg8QAiyUAFs3YeQlaAhQPOpwErRIgBBgnQQoD2lL3RI0BCgctSScrA4LJggQAqyTAOUR0FctQUOA5UeVa/CvPRghQAiwTAJsWoaWl6AhQD0CvMGc3rHZhOv6tNgDhABLJMC2TRh5CRoC1CfAD1ieIy+tpxkJEAIskQBblqHlJWgIUKsAr5KERcMAAUKAVRKgXFRrtRJ0eyuwasUMJEDxDScMAUKAVRKg/KzCVXsVCBLgwAJ8Q6BAiz1ACLBUAmzfhOE1JwAiAQ4uQMEDuCISIARYJwHKI6CvU4KGAMcXYP4r6RgChAAvJsCWEVBegmYIcAYB5howQYAQYJ0EKN+u4yolaAhwCgFmestiDxACbJIAeTuNqVGChgAnESCFPYOABAgB1kmA8j9yrVGChgBnESBFCBACVJcAc3zlypegIcB5BMj7eSIECAGWSIDty9BeUIJubAWvWjHDCjBHXRF7gBDg5QTYqgkjL0FDgDMJkJEAIUB9CZCWtsvLg5UgwJkESBEChADVJUBBBCwUAA0ECAFCgBBg6wQoLy6bsiVoCHAuAQbsAUKA+hKgoAlT6C44CBACRAKEAJsnQPm+nStZgoYAIUAIEAKslABbRUB5CRoChAAhQAiwXgJsUYaWl6AhQAgQe4AQYL0E2KQJIw+AECAEiAQIASpIgDnm8qVK0BAgBAgBQoAqEiAtRcyaVYKGACFACBACVJEAyQnNJS9BQ4AQIPYAIUAlCTCjwOzKlKAhQAgQCRAC/CR9wmUTYIMmjLwEDQFCgCoEaEMeFgIsyv0r9GOwqXkClEdAeQkaAoQAdQiQ455HZAiw6itTo+VaCbCIW5cSHRgIEAJUsgcoMCAEWAK2cX9BTA0ToLwJIw+AECAEqCQBEnHINWCCAK9jY8b3WJQAqzdh5AEQAoQA1QiQKOyZJAiw+svyA1dOgHKD8dUSNAQIAWoSINlsA0KA9V+PkConQHkErP8kaLkVeleM7qsbcA9QZkALAYp53HQINqXEnJJ9WBbbFglQXoaWl6CRACFAVQmQKGUbEAKUwnE/CIm+winsB+FSAmzZhFlzAiASYLdXN6wA8w0YIMDL/ov2l3wYxAmw/o+evASNBAgBqhOgwIAQ4EX/2d+XyFGcAKtGQH+lA4ME2O/V9bYHyMKV2SkCBHjFf5HPfMqhbgKU+1XegYEA+7263hJgovOwoBINAYr/EYSTnrTtEiBvp2F5AIQAO766kQUouimkpgBpQAHau7H5K68+i1Q5AcoEKw+AEGDHV9fbEjhQHiVvCtkbCpCpD/iY+rDhi2ch3AwY6yZAmclWcQkaAuz56noTYKSDxjeF8HUBxoyr6IPbROGHNB/4IQNaaQKsWYZ20hI0BNjz1fUmwJ3/zIC2pQAtdUG6/3ztz99SPj5EQQKs/dMnDIAQYNdXd4nYUIByM9hCBgwtBRioC+K90ez+Anv/360sAVZuwshK0BBg11d3iSIrV96Fa+DGN4WwyJ/yyNwD6eEbZvdX8IMwWyVAcvl/g9s2RZcFAaolldGWMJ+1rkTbAhdo97E2AePDp2vvdEic7LFHeG9MQQKsHgFZ0IHhvgS40iMQoJxY5vA2CuTU3oAcC+xSpn2oNTAfsr4T4DPn32fg2CABSv8KnxMAVVjh0rNfIUApqZC1oiwCNi4E2hIVvrQPVYSxh81eCPD4Ten+O5CaJUA+H48EJWgVVvAXzmwgQClc6ugiSN3U8qaQVGb3bh8qAsbjw30tQD5+093XNEiAAslmlqCVWGHTvAYeVIAcS6U2K1ifts6AHMsIMOwD7QIeK+CfBEhPz0limwSYZ7QluwOjxAqL5gg4qABjsfZe2i+f0lZ/U0gspGe7D7QITjeX5QiQj+FqJUC5HnxmCVqLFUzGNTPdAQFSizxFP7ELDVi/El08uPG+j5MB7c34OUtgisdsggRYOQJmBkAtVnDbptcyIwow139BICbBH1ipEs2xnLXiQAYMx0WePQQ5vsoKEmD9CMhZJWg9VljlJ9cQYPtmsdxL8pMQ+ZtCUpa0YtErCJqXwfGMANPjet7KBOia/AiarBK0HiuYTW8GHE6AHPdcuNh58oFto24Ogmxabtao+Kbg/RN+LcDjhSDx8SMIFROgPCCtWSVoPVbwWw6rp39AgJmkCgvWuEuISWTAyqTSG5G71boQ3j95Ugz85Nm35Tg6aZgAyWwVMJqssGxZLJ7+BwLMIdkokkIlK0XL6gzIFf7+aJPCpTB/NdmJhyFcE6ChOhFQjtdkBb9lsjj6AAI8B6dDfrnEs1lC5oaKK/gapzNROGiwSZcGMwRo6YClCVBZBFx0WWERTOA8UVcCtMG2/xVCiNeckTIOJ2QStImVGDBVjqAxxhBC+38FfEGAIT18WfsE6JUFwPICZKHGF+Oc957rUXDUuPdIPBMmChBP86ezUtg7JJ3cA3wkHu4ssAcoZ9EVAMsLkMzWPYMKMJ3qp4xBojO275AcAVp+J94vfq+fAuuKgE6bAGnZemdMAQY6AXc52rMAOKjtmb4Tf6zBpBdfaGUCdKQqAq56Nsb+sW6dM6QAo47D2Q9UBMA+P8eUX4QOh+gOxEVoQ9dwijowlQTot84ZUoCJ3hh1Z+xZ2B1zEZxef2T2hQAfFsEF7gXW04RZFR2NHritb0YUYKJxpfAN1lJGbPM52l+eBmOf3rQofhqMpghoVAqwdwMOKECrp6GsSPYdbgPyD//PeiVAik9ycRI/D1BTBGSdAuzcgOMJ0Gq6R0PVsL0ZMJ15GsKjAPnJ14bbboEkAWopQxtN7eBxDDicAAN9MsU2oCUa2ICJnhB+eydI+BYfufU7QQ54VVKCrilA8h2fBY8mQEs0jwHD2MOmnzJ7eiVAPhbBD97n/ASoJwIaVfeHPcD99gEHE2AiGlsK32Q/cAZkesYh/zsBvn4aKsXbVwgSoJpdQK9ZgB3fEzKUAGMimseAljQ+mqsg6UeHp1cCpHicBN9/gSQBKjkINrqeEDDOMngkAUamNwaPRXd6EJD6+UDTj92l+FyAh+TDk9/fPgHSoqIDmClAJU+/gQDzE9Hoseir7Af3ffr5+u2DAF8sguPxpwkToII7gl0HAiTf407gMAK8X/6qel6fKtl3FAL5l/p6eiVA/pL5whEARQlQxTnIou0heS9w/a2DBxHgTX/jx6ISry3iPqZNvwX2dCfAp4tge9hUlABVLIJX7kSARKY3BY4hwJsRpgiBn7KfQIEv54xf9wGSfYfpDvtBOvxnqVgCbH8+4NQ9JnmcFDiCAL/ob/yVYUxUBNZ/+P1yUj75zTj8F4n+LgGSV+E/iQDH3wvsX4A3/U0Ri0IimmZcPnFqZU85PjKVSoDtuzBG4YsyfsH3sxLuXYCBqSRW97iRaaJx05kt28AnEn0iYQKs5x7VF7EQ0SQO7FqA0TIVhnU7YU9UlqR4JZzOHVpZ/m2wRFQoAbY3oFH5qrRTuB4c2LEAY9LzGvb/6dCAiudNZ4/tLf84UyIqlADbn4Q4ne+KPIs32vcDexXgLfzN58BUZV6NHzPTT6RXr3Hn+2kiE1VJgA0eGLB6pS/LzYGdZgt2KcBgmarCmpfClmrA+iSYMk/t47PXSQcmUpAARcvghbW+LTwXds4sKhfE3QkwhsTUBNaaAysZkIiT1WTBVKDJY4lIRwJ8g82WweKJRhHg/3hnjFlUmbAnAcZgE1NTWJURbgSqx6cFVQydLrfXLRORmgSYdTa6OKLhBPgF9jVZBhNgDOfc19XiMMYYQrDWpqTKgB9wSvavRcgZ7fWM0qQzZjn3y1MF3LL9ylrlr/anBzfUOQUFaMNfcbNDYvpT+JaLQrxuvNtIfO0+vMjUCk5v2DdCE/5r7w50EoahKICusy1z/f//NUGNJBJkGEjbd44/YDTcXPpetwvbvwZWp23p1O2pQE25LHQTgFyJg2P2n8S7MEwCdu93RX8/7UvnSj6fhtX2pdaa0pqL/6sAnM1219VcCfgf+7mhf3bsfbA/zbYN9gv3TwCO5/DIufuSA1cIQK56k4AgAMN662MhEEYnAIe0S0AQgGF1uBAI4xGAg5KAIADjurEQONq+L1wjALESDU+0CsBhSUAQgIGdOnk0NgzKV+ChuRQCGmBcLoWABhiXSyHwigAc/tGHk3IpBB7WBODorETDg4oAHN/+LgHhuTOQlhc6ZSEQHrE1ATgDCQjPLYDNR6ZjEhCe+gL6utAzK9FwTKmtWQOchQSEg/nnCHAiLoXA/dZ2iFcwd8+lELhTSa01R4BzcSkE7lHWdmYNei4uhcCfcmqfLMHMxqUQuKVcpJ8Z8Hz200EmIQRR8ppq+2YEArxATrWHn/ZFAQQu9LVv0iMFEHhMbqMzAgaiNsBqBAxEbYC+AANRG6AvwEDUBmgCDERtgA4AgagNUP4BURtgNQABgjZA/Q+I2gCT/AOCNkD7L0DUBij/gKANMBl/AEEboPoHBG2A6h8QtAEm7wAGYjbAKv6AmA1Q/AFBG6CzPyBoA1zFHxCxAVbpB4RsgNXcFwjZAFPW/YCADTCtqh8QrgHWtDr1A6I1wJTWnD3oD276ANbVxRR2JnhDAAAAAElFTkSuQmCC;direction=east;" vertex="1" parent="1">
          <mxGeometry x="599.73" y="679.62" width="108.54" height="56.13" as="geometry" />
        </mxCell>
        <mxCell id="c_Fl5ofFOobAnzRydgGP-28" value="192.168.200.133:3306&#xa;agronomy-back" style="text;whiteSpace=wrap;" vertex="1" parent="1">
          <mxGeometry x="191" y="739" width="118" height="36" as="geometry" />
        </mxCell>
        <mxCell id="c_Fl5ofFOobAnzRydgGP-29" value="10.188.16.4:3306&#xa;varieties" style="text;whiteSpace=wrap;" vertex="1" parent="1">
          <mxGeometry x="595" y="742" width="118" height="35" as="geometry" />
        </mxCell>
        <mxCell id="c_Fl5ofFOobAnzRydgGP-31" value="联农宝" style="rounded=1;whiteSpace=wrap;html=1;strokeWidth=1;fontSize=15;fillColor=#e1d5e7;strokeColor=#9673a6;" vertex="1" parent="1">
          <mxGeometry x="610.73" y="314" width="121" height="60" as="geometry" />
        </mxCell>
        <mxCell id="c_Fl5ofFOobAnzRydgGP-32" value="联农宝、联服宝" style="rounded=1;whiteSpace=wrap;html=1;strokeWidth=1;fontSize=15;fillColor=#e1d5e7;strokeColor=#9673a6;" vertex="1" parent="1">
          <mxGeometry x="599.73" y="325" width="121" height="60" as="geometry" />
        </mxCell>
        <mxCell id="c_Fl5ofFOobAnzRydgGP-34" style="edgeStyle=orthogonalEdgeStyle;rounded=0;orthogonalLoop=1;jettySize=auto;html=1;exitX=0.5;exitY=0;exitDx=0;exitDy=0;entryX=0.449;entryY=0.95;entryDx=0;entryDy=0;entryPerimeter=0;" edge="1" parent="1" source="c_Fl5ofFOobAnzRydgGP-3" target="c_Fl5ofFOobAnzRydgGP-32">
          <mxGeometry relative="1" as="geometry" />
        </mxCell>
      </root>
    </mxGraphModel>
  </diagram>
</mxfile>
